<svg width="25" height="25" viewBox="0 0 25 25" fill="none" xmlns="http://www.w3.org/2000/svg">
<g clip-path="url(#clip0_2228_2220)">
<mask id="mask0_2228_2220" style="mask-type:luminance" maskUnits="userSpaceOnUse" x="-5" y="-5" width="35" height="35">
<path d="M-4.2998 -4.35077H29.3002V29.2492H-4.2998V-4.35077Z" fill="white"/>
</mask>
<g mask="url(#mask0_2228_2220)">
<path d="M24.5 12.4492C24.5 5.82182 19.1274 0.449236 12.5 0.449236C5.87259 0.449236 0.5 5.82182 0.5 12.4492C0.5 18.077 4.37432 22.7991 9.60109 24.0958V16.1162H7.12659V12.4492H9.60109V10.8691C9.60109 6.7847 11.4495 4.89158 15.4594 4.89158C16.2196 4.89158 17.5314 5.04062 18.068 5.18971V8.5139C17.7848 8.48409 17.2929 8.46916 16.6817 8.46916C14.714 8.46916 13.9538 9.21451 13.9538 11.1524V12.4492H17.8734L17.2001 16.1162H13.9538V24.3613C19.8955 23.6437 24.5 18.5845 24.5 12.4492Z" fill="white"/>
</g>
</g>
<defs>
<clipPath id="clip0_2228_2220">
<rect width="24" height="24" fill="white" transform="translate(0.5 0.449219)"/>
</clipPath>
</defs>
</svg>
